<mxfile host="app.diagrams.net" modified="2024-03-19T18:31:37.481Z" agent="Mozilla/5.0 (Windows NT 10.0; Win64; x64) AppleWebKit/537.36 (KHTML, like Gecko) Chrome/121.0.0.0 Safari/537.36" etag="22EXFLA0-J-aNVkpFnlX" version="24.0.5" type="device">
  <diagram name="Stránka-1" id="WwW3SH3pPWQlp4jVcBad">
    <mxGraphModel dx="1433" dy="1036" grid="0" gridSize="10" guides="1" tooltips="1" connect="1" arrows="1" fold="1" page="0" pageScale="1" pageWidth="827" pageHeight="1169" math="0" shadow="0">
      <root>
        <mxCell id="0" />
        <mxCell id="1" parent="0" />
        <mxCell id="V-MFH_fSx5cqEBQ9GNb0-5" value="" style="edgeStyle=none;curved=1;rounded=0;orthogonalLoop=1;jettySize=auto;html=1;fontSize=12;startSize=8;endSize=8;" parent="1" source="V-MFH_fSx5cqEBQ9GNb0-1" target="V-MFH_fSx5cqEBQ9GNb0-2" edge="1">
          <mxGeometry relative="1" as="geometry" />
        </mxCell>
        <mxCell id="V-MFH_fSx5cqEBQ9GNb0-1" value="&lt;font style=&quot;vertical-align: inherit;&quot;&gt;&lt;font style=&quot;vertical-align: inherit;&quot;&gt;START&lt;/font&gt;&lt;/font&gt;" style="ellipse;whiteSpace=wrap;html=1;" parent="1" vertex="1">
          <mxGeometry x="239" y="-87" width="78" height="54" as="geometry" />
        </mxCell>
        <mxCell id="V-MFH_fSx5cqEBQ9GNb0-10" value="" style="edgeStyle=none;curved=1;rounded=0;orthogonalLoop=1;jettySize=auto;html=1;fontSize=12;startSize=8;endSize=8;" parent="1" source="V-MFH_fSx5cqEBQ9GNb0-2" target="V-MFH_fSx5cqEBQ9GNb0-6" edge="1">
          <mxGeometry relative="1" as="geometry">
            <Array as="points">
              <mxPoint x="403" y="53" />
            </Array>
          </mxGeometry>
        </mxCell>
        <mxCell id="V-MFH_fSx5cqEBQ9GNb0-12" value="" style="edgeStyle=none;curved=1;rounded=0;orthogonalLoop=1;jettySize=auto;html=1;fontSize=12;startSize=8;endSize=8;" parent="1" source="V-MFH_fSx5cqEBQ9GNb0-2" target="V-MFH_fSx5cqEBQ9GNb0-11" edge="1">
          <mxGeometry relative="1" as="geometry" />
        </mxCell>
        <mxCell id="V-MFH_fSx5cqEBQ9GNb0-2" value="&lt;font style=&quot;vertical-align: inherit;&quot;&gt;&lt;font style=&quot;vertical-align: inherit;&quot;&gt;je to moučník&lt;/font&gt;&lt;/font&gt;" style="rhombus;whiteSpace=wrap;html=1;" parent="1" vertex="1">
          <mxGeometry x="221" y="16" width="114" height="85" as="geometry" />
        </mxCell>
        <mxCell id="V-MFH_fSx5cqEBQ9GNb0-14" value="" style="edgeStyle=none;curved=1;rounded=0;orthogonalLoop=1;jettySize=auto;html=1;fontSize=12;startSize=8;endSize=8;" parent="1" source="V-MFH_fSx5cqEBQ9GNb0-6" target="V-MFH_fSx5cqEBQ9GNb0-13" edge="1">
          <mxGeometry relative="1" as="geometry">
            <Array as="points">
              <mxPoint x="511" y="123" />
            </Array>
          </mxGeometry>
        </mxCell>
        <mxCell id="gNYUzNZE0exnkvLqRCgA-25" value="" style="edgeStyle=none;curved=1;rounded=0;orthogonalLoop=1;jettySize=auto;html=1;fontSize=12;startSize=8;endSize=8;entryX=0.5;entryY=0;entryDx=0;entryDy=0;" edge="1" parent="1" source="V-MFH_fSx5cqEBQ9GNb0-6" target="gNYUzNZE0exnkvLqRCgA-26">
          <mxGeometry relative="1" as="geometry">
            <Array as="points">
              <mxPoint x="272" y="122" />
            </Array>
          </mxGeometry>
        </mxCell>
        <mxCell id="V-MFH_fSx5cqEBQ9GNb0-6" value="&lt;font style=&quot;vertical-align: inherit;&quot;&gt;&lt;font style=&quot;vertical-align: inherit;&quot;&gt;je kulatý&lt;/font&gt;&lt;/font&gt;" style="rhombus;whiteSpace=wrap;html=1;" parent="1" vertex="1">
          <mxGeometry x="363" y="95" width="87" height="61" as="geometry" />
        </mxCell>
        <mxCell id="V-MFH_fSx5cqEBQ9GNb0-11" value="&lt;font style=&quot;vertical-align: inherit;&quot;&gt;&lt;font style=&quot;vertical-align: inherit;&quot;&gt;není to moučník :D&lt;/font&gt;&lt;/font&gt;" style="rounded=1;whiteSpace=wrap;html=1;" parent="1" vertex="1">
          <mxGeometry x="42" y="34.5" width="110" height="48" as="geometry" />
        </mxCell>
        <mxCell id="V-MFH_fSx5cqEBQ9GNb0-13" value="&lt;font style=&quot;vertical-align: inherit;&quot;&gt;&lt;font style=&quot;vertical-align: inherit;&quot;&gt;má náplň&lt;/font&gt;&lt;/font&gt;" style="rhombus;whiteSpace=wrap;html=1;" parent="1" vertex="1">
          <mxGeometry x="479" y="156" width="80" height="80" as="geometry" />
        </mxCell>
        <mxCell id="V-MFH_fSx5cqEBQ9GNb0-15" value="&lt;font style=&quot;vertical-align: inherit;&quot;&gt;&lt;font style=&quot;vertical-align: inherit;&quot;&gt;je to koláč&lt;/font&gt;&lt;/font&gt;" style="rounded=1;whiteSpace=wrap;html=1;" parent="1" vertex="1">
          <mxGeometry x="545" y="325.5" width="75" height="35.5" as="geometry" />
        </mxCell>
        <mxCell id="gNYUzNZE0exnkvLqRCgA-3" value="" style="endArrow=classic;html=1;rounded=0;fontSize=12;startSize=8;endSize=8;curved=1;exitX=0;exitY=0.5;exitDx=0;exitDy=0;" edge="1" parent="1" source="V-MFH_fSx5cqEBQ9GNb0-13">
          <mxGeometry width="50" height="50" relative="1" as="geometry">
            <mxPoint x="457" y="186" as="sourcePoint" />
            <mxPoint x="437" y="233" as="targetPoint" />
            <Array as="points">
              <mxPoint x="435" y="191" />
            </Array>
          </mxGeometry>
        </mxCell>
        <mxCell id="gNYUzNZE0exnkvLqRCgA-14" value="slepen ze dvou částí" style="rhombus;whiteSpace=wrap;html=1;" vertex="1" parent="1">
          <mxGeometry x="598" y="240" width="80" height="80" as="geometry" />
        </mxCell>
        <mxCell id="gNYUzNZE0exnkvLqRCgA-15" value="" style="endArrow=classic;html=1;rounded=0;fontSize=12;startSize=8;endSize=8;curved=1;entryX=0.5;entryY=0;entryDx=0;entryDy=0;exitX=1;exitY=0.5;exitDx=0;exitDy=0;" edge="1" parent="1" source="V-MFH_fSx5cqEBQ9GNb0-13" target="gNYUzNZE0exnkvLqRCgA-14">
          <mxGeometry width="50" height="50" relative="1" as="geometry">
            <mxPoint x="457" y="284" as="sourcePoint" />
            <mxPoint x="507" y="234" as="targetPoint" />
            <Array as="points">
              <mxPoint x="608" y="193" />
            </Array>
          </mxGeometry>
        </mxCell>
        <mxCell id="gNYUzNZE0exnkvLqRCgA-16" value="" style="endArrow=classic;html=1;rounded=0;fontSize=12;startSize=8;endSize=8;curved=1;exitX=0;exitY=0.5;exitDx=0;exitDy=0;entryX=0.5;entryY=0;entryDx=0;entryDy=0;" edge="1" parent="1" source="gNYUzNZE0exnkvLqRCgA-14" target="V-MFH_fSx5cqEBQ9GNb0-15">
          <mxGeometry width="50" height="50" relative="1" as="geometry">
            <mxPoint x="487" y="296" as="sourcePoint" />
            <mxPoint x="537" y="246" as="targetPoint" />
            <Array as="points">
              <mxPoint x="578" y="280" />
            </Array>
          </mxGeometry>
        </mxCell>
        <mxCell id="gNYUzNZE0exnkvLqRCgA-17" value="je to dort" style="rounded=1;whiteSpace=wrap;html=1;" vertex="1" parent="1">
          <mxGeometry x="670" y="326" width="74" height="35" as="geometry" />
        </mxCell>
        <mxCell id="gNYUzNZE0exnkvLqRCgA-18" value="" style="endArrow=classic;html=1;rounded=0;fontSize=12;startSize=8;endSize=8;curved=1;exitX=1;exitY=0.5;exitDx=0;exitDy=0;entryX=0.5;entryY=0;entryDx=0;entryDy=0;" edge="1" parent="1" source="gNYUzNZE0exnkvLqRCgA-14" target="gNYUzNZE0exnkvLqRCgA-17">
          <mxGeometry width="50" height="50" relative="1" as="geometry">
            <mxPoint x="487" y="296" as="sourcePoint" />
            <mxPoint x="709" y="331" as="targetPoint" />
            <Array as="points">
              <mxPoint x="712" y="277" />
            </Array>
          </mxGeometry>
        </mxCell>
        <mxCell id="gNYUzNZE0exnkvLqRCgA-19" value="je to bábovka" style="rounded=1;whiteSpace=wrap;html=1;" vertex="1" parent="1">
          <mxGeometry x="399" y="228" width="80" height="34" as="geometry" />
        </mxCell>
        <mxCell id="gNYUzNZE0exnkvLqRCgA-22" style="edgeStyle=none;curved=1;rounded=0;orthogonalLoop=1;jettySize=auto;html=1;exitX=0.5;exitY=1;exitDx=0;exitDy=0;fontSize=12;startSize=8;endSize=8;" edge="1" parent="1" source="gNYUzNZE0exnkvLqRCgA-19" target="gNYUzNZE0exnkvLqRCgA-19">
          <mxGeometry relative="1" as="geometry" />
        </mxCell>
        <mxCell id="gNYUzNZE0exnkvLqRCgA-28" value="" style="edgeStyle=none;curved=1;rounded=0;orthogonalLoop=1;jettySize=auto;html=1;fontSize=12;startSize=8;endSize=8;" edge="1" parent="1" source="gNYUzNZE0exnkvLqRCgA-26" target="gNYUzNZE0exnkvLqRCgA-27">
          <mxGeometry relative="1" as="geometry">
            <Array as="points">
              <mxPoint x="343" y="194" />
            </Array>
          </mxGeometry>
        </mxCell>
        <mxCell id="gNYUzNZE0exnkvLqRCgA-50" style="edgeStyle=none;curved=1;rounded=0;orthogonalLoop=1;jettySize=auto;html=1;exitX=0;exitY=0.5;exitDx=0;exitDy=0;entryX=0.5;entryY=0;entryDx=0;entryDy=0;fontSize=12;startSize=8;endSize=8;" edge="1" parent="1" source="gNYUzNZE0exnkvLqRCgA-26" target="gNYUzNZE0exnkvLqRCgA-48">
          <mxGeometry relative="1" as="geometry">
            <Array as="points">
              <mxPoint x="136" y="186" />
            </Array>
          </mxGeometry>
        </mxCell>
        <mxCell id="gNYUzNZE0exnkvLqRCgA-26" value="má náplň" style="rhombus;whiteSpace=wrap;html=1;" vertex="1" parent="1">
          <mxGeometry x="212" y="156" width="80" height="80" as="geometry" />
        </mxCell>
        <mxCell id="gNYUzNZE0exnkvLqRCgA-39" style="edgeStyle=none;curved=1;rounded=0;orthogonalLoop=1;jettySize=auto;html=1;exitX=0;exitY=0.5;exitDx=0;exitDy=0;entryX=0.5;entryY=0;entryDx=0;entryDy=0;fontSize=12;startSize=8;endSize=8;" edge="1" parent="1" source="gNYUzNZE0exnkvLqRCgA-27" target="gNYUzNZE0exnkvLqRCgA-38">
          <mxGeometry relative="1" as="geometry">
            <Array as="points">
              <mxPoint x="256" y="303" />
            </Array>
          </mxGeometry>
        </mxCell>
        <mxCell id="gNYUzNZE0exnkvLqRCgA-27" value="svinutý plát těsta" style="rhombus;whiteSpace=wrap;html=1;" vertex="1" parent="1">
          <mxGeometry x="309" y="265" width="80" height="80" as="geometry" />
        </mxCell>
        <mxCell id="gNYUzNZE0exnkvLqRCgA-30" value="je to závin" style="rounded=1;whiteSpace=wrap;html=1;" vertex="1" parent="1">
          <mxGeometry x="397" y="348" width="82" height="34" as="geometry" />
        </mxCell>
        <mxCell id="gNYUzNZE0exnkvLqRCgA-31" value="je to buchta" style="rounded=1;whiteSpace=wrap;html=1;" vertex="1" parent="1">
          <mxGeometry x="140" y="439" width="87" height="35" as="geometry" />
        </mxCell>
        <mxCell id="gNYUzNZE0exnkvLqRCgA-32" value="" style="endArrow=classic;html=1;rounded=0;fontSize=12;startSize=8;endSize=8;curved=1;exitX=1;exitY=0.5;exitDx=0;exitDy=0;entryX=0.5;entryY=0;entryDx=0;entryDy=0;" edge="1" parent="1" source="gNYUzNZE0exnkvLqRCgA-27" target="gNYUzNZE0exnkvLqRCgA-30">
          <mxGeometry width="50" height="50" relative="1" as="geometry">
            <mxPoint x="395" y="284" as="sourcePoint" />
            <mxPoint x="445" y="234" as="targetPoint" />
            <Array as="points">
              <mxPoint x="435" y="302" />
            </Array>
          </mxGeometry>
        </mxCell>
        <mxCell id="gNYUzNZE0exnkvLqRCgA-35" value="piškot" style="rounded=1;whiteSpace=wrap;html=1;" vertex="1" parent="1">
          <mxGeometry x="173" y="301" width="70" height="38" as="geometry" />
        </mxCell>
        <mxCell id="gNYUzNZE0exnkvLqRCgA-36" value="korpus" style="rounded=1;whiteSpace=wrap;html=1;" vertex="1" parent="1">
          <mxGeometry x="13" y="301" width="67" height="38" as="geometry" />
        </mxCell>
        <mxCell id="gNYUzNZE0exnkvLqRCgA-40" style="edgeStyle=none;curved=1;rounded=0;orthogonalLoop=1;jettySize=auto;html=1;exitX=0;exitY=0.5;exitDx=0;exitDy=0;entryX=0.5;entryY=0;entryDx=0;entryDy=0;fontSize=12;startSize=8;endSize=8;" edge="1" parent="1" source="gNYUzNZE0exnkvLqRCgA-38" target="gNYUzNZE0exnkvLqRCgA-31">
          <mxGeometry relative="1" as="geometry">
            <Array as="points">
              <mxPoint x="181" y="381" />
            </Array>
          </mxGeometry>
        </mxCell>
        <mxCell id="gNYUzNZE0exnkvLqRCgA-42" style="edgeStyle=none;curved=1;rounded=0;orthogonalLoop=1;jettySize=auto;html=1;exitX=1;exitY=0.5;exitDx=0;exitDy=0;entryX=0.5;entryY=0;entryDx=0;entryDy=0;fontSize=12;startSize=8;endSize=8;" edge="1" parent="1" source="gNYUzNZE0exnkvLqRCgA-38" target="gNYUzNZE0exnkvLqRCgA-41">
          <mxGeometry relative="1" as="geometry">
            <Array as="points">
              <mxPoint x="355" y="381" />
            </Array>
          </mxGeometry>
        </mxCell>
        <mxCell id="gNYUzNZE0exnkvLqRCgA-38" value="náplň rozdrobena" style="rhombus;whiteSpace=wrap;html=1;" vertex="1" parent="1">
          <mxGeometry x="229" y="348" width="80" height="80" as="geometry" />
        </mxCell>
        <mxCell id="gNYUzNZE0exnkvLqRCgA-47" style="edgeStyle=none;curved=1;rounded=0;orthogonalLoop=1;jettySize=auto;html=1;exitX=1;exitY=0.5;exitDx=0;exitDy=0;entryX=0.5;entryY=0;entryDx=0;entryDy=0;fontSize=12;startSize=8;endSize=8;" edge="1" parent="1" source="gNYUzNZE0exnkvLqRCgA-41" target="gNYUzNZE0exnkvLqRCgA-43">
          <mxGeometry relative="1" as="geometry">
            <Array as="points">
              <mxPoint x="450" y="473" />
            </Array>
          </mxGeometry>
        </mxCell>
        <mxCell id="gNYUzNZE0exnkvLqRCgA-41" value="má drobenku" style="rhombus;whiteSpace=wrap;html=1;" vertex="1" parent="1">
          <mxGeometry x="320" y="439" width="80" height="80" as="geometry" />
        </mxCell>
        <mxCell id="gNYUzNZE0exnkvLqRCgA-43" value="je to táč" style="rounded=1;whiteSpace=wrap;html=1;" vertex="1" parent="1">
          <mxGeometry x="410" y="529" width="78" height="30" as="geometry" />
        </mxCell>
        <mxCell id="gNYUzNZE0exnkvLqRCgA-44" value="je to bublanina&lt;div&gt;(třená buchta)&lt;/div&gt;" style="rounded=1;whiteSpace=wrap;html=1;" vertex="1" parent="1">
          <mxGeometry x="232" y="524" width="95" height="35" as="geometry" />
        </mxCell>
        <mxCell id="gNYUzNZE0exnkvLqRCgA-45" value="" style="endArrow=classic;html=1;rounded=0;fontSize=12;startSize=8;endSize=8;curved=1;exitX=0;exitY=0.5;exitDx=0;exitDy=0;entryX=0.5;entryY=0;entryDx=0;entryDy=0;" edge="1" parent="1" source="gNYUzNZE0exnkvLqRCgA-41" target="gNYUzNZE0exnkvLqRCgA-44">
          <mxGeometry width="50" height="50" relative="1" as="geometry">
            <mxPoint x="312" y="378" as="sourcePoint" />
            <mxPoint x="362" y="328" as="targetPoint" />
            <Array as="points">
              <mxPoint x="275" y="477" />
            </Array>
          </mxGeometry>
        </mxCell>
        <mxCell id="gNYUzNZE0exnkvLqRCgA-53" style="edgeStyle=none;curved=1;rounded=0;orthogonalLoop=1;jettySize=auto;html=1;exitX=0;exitY=0.5;exitDx=0;exitDy=0;entryX=0.5;entryY=0;entryDx=0;entryDy=0;fontSize=12;startSize=8;endSize=8;" edge="1" parent="1" source="gNYUzNZE0exnkvLqRCgA-48" target="gNYUzNZE0exnkvLqRCgA-36">
          <mxGeometry relative="1" as="geometry">
            <Array as="points">
              <mxPoint x="44" y="265" />
            </Array>
          </mxGeometry>
        </mxCell>
        <mxCell id="gNYUzNZE0exnkvLqRCgA-48" value="má drobenku" style="rhombus;whiteSpace=wrap;html=1;" vertex="1" parent="1">
          <mxGeometry x="88" y="231" width="80" height="80" as="geometry" />
        </mxCell>
        <mxCell id="gNYUzNZE0exnkvLqRCgA-51" style="edgeStyle=none;curved=1;rounded=0;orthogonalLoop=1;jettySize=auto;html=1;exitX=1;exitY=0.5;exitDx=0;exitDy=0;entryX=0.611;entryY=0.074;entryDx=0;entryDy=0;entryPerimeter=0;fontSize=12;startSize=8;endSize=8;" edge="1" parent="1" source="gNYUzNZE0exnkvLqRCgA-48" target="gNYUzNZE0exnkvLqRCgA-35">
          <mxGeometry relative="1" as="geometry">
            <Array as="points">
              <mxPoint x="210" y="262" />
            </Array>
          </mxGeometry>
        </mxCell>
        <mxCell id="gNYUzNZE0exnkvLqRCgA-54" value="+" style="text;html=1;align=center;verticalAlign=middle;resizable=0;points=[];autosize=1;strokeColor=none;fillColor=none;fontSize=16;" vertex="1" parent="1">
          <mxGeometry x="333.5" y="26.5" width="27" height="31" as="geometry" />
        </mxCell>
        <mxCell id="gNYUzNZE0exnkvLqRCgA-55" value="-" style="text;html=1;align=center;verticalAlign=middle;resizable=0;points=[];autosize=1;strokeColor=none;fillColor=none;fontSize=16;" vertex="1" parent="1">
          <mxGeometry x="198.5" y="26.5" width="23" height="31" as="geometry" />
        </mxCell>
      </root>
    </mxGraphModel>
  </diagram>
</mxfile>
